<svg xmlns="http://www.w3.org/2000/svg" viewBox="0 0 200 200">
  <defs>
    <linearGradient id="skinGrad2" x1="0%" y1="0%" x2="100%" y2="100%">
      <stop offset="0%" style="stop-color:#FFE0BD"/>
      <stop offset="100%" style="stop-color:#FFCBA4"/>
    </linearGradient>
  </defs>
  <!-- 背景 -->
  <rect width="200" height="200" fill="#f0fff4" rx="20"/>
  <!-- 手掌向外推 -->
  <ellipse cx="100" cy="100" rx="40" ry="45" fill="url(#skinGrad2)" stroke="#e0b090" stroke-width="2"/>
  <!-- 五指张开 -->
  <path d="M60 100 Q45 80, 50 55 Q55 40, 65 45 Q75 50, 70 70 L70 90" fill="url(#skinGrad2)" stroke="#e0b090" stroke-width="2"/>
  <path d="M75 85 Q70 55, 78 35 Q85 25, 92 30 Q98 35, 95 55 L90 80" fill="url(#skinGrad2)" stroke="#e0b090" stroke-width="2"/>
  <path d="M95 80 Q95 45, 102 28 Q108 20, 115 25 Q122 30, 118 50 L110 78" fill="url(#skinGrad2)" stroke="#e0b090" stroke-width="2"/>
  <path d="M115 85 Q120 55, 128 40 Q135 32, 142 38 Q148 45, 142 65 L130 85" fill="url(#skinGrad2)" stroke="#e0b090" stroke-width="2"/>
  <path d="M130 95 Q140 75, 150 65 Q158 60, 162 68 Q165 78, 155 90 L140 100" fill="url(#skinGrad2)" stroke="#e0b090" stroke-width="2"/>
  <!-- 箭头表示向外推 -->
  <path d="M100 150 L100 170 M90 160 L100 170 L110 160" stroke="#667eea" stroke-width="3" fill="none"/>
  <!-- 文字 -->
  <text x="100" y="190" text-anchor="middle" font-family="Arial" font-size="14" fill="#67c23a" font-weight="bold">谢谢</text>
</svg>
